<svg version="1.2" xmlns="http://www.w3.org/2000/svg" viewBox="0 0 256 256" width="256" height="256"><style>tspan{white-space:pre}.a{fill:#5fca08;stroke:#90db04;stroke-linejoin:round;stroke-width:.3}.b{fill:#90db04}.c{fill:#90db04;stroke:#90db04;stroke-linejoin:round}.d{fill:#c3eb00}.e{fill:#5fca08}.f{fill:#90db04;stroke:#90db04;stroke-linejoin:round;stroke-width:.3}</style><path fill-rule="evenodd" class="a" d="m181.6 116.7l-0.1 3.3 2.9-2.7 2.1-3 1.9-0.8 4.6-2.4-2.5 3.5-3.5 1.2-2 4.4-3.1 2.2h1.2l4.2 0.9 3.3-0.8 2.5-0.2h3.2l3.3-1.1 2.5-0.8-1.7 2.4-4 0.3-4.6 0.1-3.8 1.6-3.9-0.1-3.2 0.2-4 1.7-0.8 2.2-2.5 2.7-2.8 3.6-4.5 1.7-2.7 2.2-1.1 4.6-1.5 4.4-0.1 8.1 0.1 5.4 0.3 4 2.8 3.6 2.2 1.3 6.6-2.6 1.7-2.3 2.8-1.1 3.3-1.3 1.8-3.4 5.1-6 5.2-4.4 2.8-3 0.7-3.4-0.5-3.3 2.3-4.2 0.1-3.4 3.1-2.6v-0.5l2-2.7 3.3-0.6 2.9-1.8 2-1.1 4.3 0.1 3.7-1.7 1.9 0.2 2.1 0.4h1.9l1.9-0.3-2.8 1.5-2.6 0.1-1.9-0.4-2 0.9-2.3 1-1.6-0.5-1.3 0.8-1.9 0.6-1.2 1-1.1 1.1-2.8 0.4-1.2 1.4-2.4 2.6-0.8 2.4-0.7 1.5 0.3 1.9-0.1 1.6-1.6 3.5-0.2 1.4 0.7 0.5 5.2-1.1 2.8-2.9 1.8-0.3 3.3-2.1 4.1-1.3 1.1-1.7 1.7-0.8 2.8-1 1.5-1.1 2.5-1.9 1.2-1.2 1.2-0.9 0.6-1.2 0.2-1.2-0.2-1.1 0.1-1 0.6-1.2-0.3-1.1-1.3-1.2-1.2-1.1 0.2-1.1-0.5-1-2.1-1-0.8-1.6-1.3-1-1.1-1v-0.9l-0.2-0.7-1.4-1-1-1.2-0.4-1.4-1.4-1.3-0.6-1.3-0.2-0.5 1.3 0.9 2 2 0.5 0.8 1.8 1.3 0.4 0.5 1.2 0.9 0.1 1.2 1.2 0.8 0.5 1.2 0.8 0.5 0.7 1 1.2 0.5 0.8 0.6 0.1-0.1 0.1-1 0.3-0.6 1.3-1 0.2-0.7 0.8-1.3v-0.8l0.7-1.4 0.1-0.5 0.9-0.5 1.1-1 1.3-0.6 0.9-1 1.6-0.4 2 0.3 1.3 0.1 0.9 0.4 1.1-0.4 1.4 0.1h1.2l-1.3 0.2-1.4 1-1.3-0.2-1.6-0.2-2.3 0.1-0.3 0.8-0.5 1.1-1.6 0.6-1.5 0.9-0.6 1.5 0.1 2.1-0.4 1-1 0.2-1 1-0.1 1.9 0.4 2.4v1.7l0.7 1.1 0.5 1.6-0.5 1.4 0.8-0.7 0.1-1.5 0.1-1.7-0.1-1 1.5-1.5 0.8-1.5 0.1-0.7-0.1-1-0.6-1.4 0.9 1.1 0.8 1.4v1.3l-0.1 1.2-0.8 0.9-0.7 0.6-0.1 1.3 0.2 1.2 0.1 1.2-0.7 1.3-2.6 1.5 1.1-0.2 2.3 0.5h2.1l2.2 1.4 1.7 1.5 0.7 1.7 0.3 1.3v1.4l-0.6-1.2-1-1.7-0.4-0.8h-1.7c-0.1 0-1.4-0.5-1.4-0.5l-1.4-0.7-1.5 0.7-1.7-0.6-1.6-0.1-2 0.9-0.8 1-1.5 0.9-1.3 1.3-2.8 0.8-1.6 1.8-2.5 1.8 1.9 0.3 1.1-0.3 2.7-0.4 2.5-0.3 2.6 0.7 2.5 0.5 3.6-0.7 1.3 0.7 1.4 0.9 3 0.3 1-0.9 1.4-0.6 1.7-0.4 1.2 0.4 1.2 1.1-0.1 3.2-0.7-2-1.5-1.4-1.4 0.3-1.5 1.1-1.6 0.5-1.9-0.2-1.9-0.4-1.2-0.4-2.5 0.1-1.5-0.2-1.6 0.4-3.1 0.4-2.1 1-3.6 0.3-4.3 1.9 1.3 0.6 1.3-0.1 3 0.4 1-0.6h2.5l2.9 0.6 2.1-0.1 1.2 0.3 1.2 0.2 1.9 0.3 1.2 1 0.9 0.1 2.1 1 0.8 1.4 0.8 0.5 0.6 0.3 1.3 0.8 0.6 0.1 0.7 0.2 0.4 0.4 0.7 0.2 1 0.2 1.5-0.2 1.2-0.5h0.5l1.4 0.5 0.4 1.4-2.2-0.4-5 0.3-1.2 1.3-0.5-1-2.8-1.5-0.5-0.9-1.6-0.8-1-1.2h-1.1l-1-0.7-3.7-0.6-0.6-0.4-1.8 0.1-1-0.3h-2.9l-1.5-0.3 0.7 1.3 0.6 0.4 0.5 0.6 1.2 1.2 0.4 0.9 0.4 0.1 0.5 0.7v0.6l0.3 0.6-0.1 0.5 0.5 0.8 0.9 1.6 1 0.9-1.3-0.6-1.4-1-0.8-1-0.3-1.7-1-1.3-4.3-3.1-2.3-0.1-1.7-0.8-4.2 0.1-2-0.5-5.1 1.8-7.2 5.4-2 0.6-2.7 3.6-3.5 3.8-2.6 4.5-2.4 1.3-3.4 3-4.2 1.9-1.8 4.4-2.1 0.9-3 3.6-2 3.5-4.1 2.7 0.4 1.8-2.4 6.3-6.3 2.8-4.4 4.1-7.1 2.2-5.7-1.7-5.1 1.2-3.9 3.9-4.1 1.9-6 0.1-4 1.7-3 2.9 0.1 1.1-2.7 4.4-4.8 2.1-1.8 1.9-0.9 4.2 0.9 3.6-1.4 5.2 1.8 3.7 0.9 2.9 5.9 4 2.1 6.1h-101.1l0.2-3.2 15-6.6 2.8-1.7-0.8-2.1 1.2-3.1 2.7-1.5 3.1-7.5 5.6-2.5 8.8-7 3.6-0.9 3.5-1.9 4.8-0.6 1.9 1.4 2.1-1.8 4.6-1.1 2.6-1.1 2.3-2.8 5.6-0.3 7.8-7.9 13.2-6.3 2.6-0.1 2.6-2.8 2.3-0.4 3.3-1.1 12.2-0.2 1.5-0.9 4.4-0.3 2.1 0.5 1.5-0.1 0.7-1 1-0.2 1.9 0.4 0.6-1.8 5 0.4 0.9-2.3 2.2-0.9 0.6-1.7 1.4-1.7 0.3-2.3 1.1-1.9-0.2-1.5-0.6-1.4-0.5-1.1-1.8-1.8-0.1-0.9-1.2-0.1-0.6-2.7-0.3-1.8 1.2-2.3-0.4-1.4-1.2-0.4-0.5-2.7-0.2-2.2-2.8-2.6-1.4-2.1-1.7-0.8-2-2.1-0.6-0.2-0.7 0.2-1.6-1.4-1.3-1.4-1.5 0.1-3.4-4.2h-1.1l-0.7-0.7-2.8-0.6-2.5 0.7-7.4-0.2-4.2 0.8-0.4 1.1-3.8 1.7-2.2 2-3.8 0.9-2.8 2.6-2.2 2.7-3.1 3.7-3.1 1.1-1.8 1.2 1.1-2.3 2.6-1.2 3-3.1 2.1-2.4 2.4-2.4 3.9-2 1.7-1.7-7 1-4.3-1.3-4.3 0.9-3.7-0.7-6.5-1.5-0.1-0.6 8 0.5 4.7 0.1 2.9-0.5c0 0 3.2 0.8 3.3 0.8 0.1 0 9.4-0.5 9.4-0.5l0.8-1.2 4.4-1.5 4.4-1.2 3.7-0.9-4.2-3.7-3.5-3.5-6.5-6.1-5.6-0.9-3.8-1.9-6.4-2.2-3.1-0.5h-5.6l-3.3 0.2-2.8 1.1-5.3 0.2h-4l-3.6 1.8-5.7 1.7-1.7 1.2-5.1 1.1-0.9 1.3-1.4 1.6-0.8 2.1-0.2-2.4 1.3-2.2-1.2 0.4-3.8 0.5-2.1 0.9-2.3 0.1-1.3-0.6 4.5-0.6 0.5-1.2h3.4l0.7-0.8 2.2-0.5 11-3.2 1.9-1.3 8.3-2.4 5.4-0.1 6.2-1 0.5-0.5-1.5-0.9-3.3-0.7-3.1-2.7-0.6 0.1-2.1-2-2.9-0.9-1.6 0.2-2.2-0.6 2.6-0.7 2.4-0.4 0.7 1 2.8 1 2.3 1 2.3 0.9 0.8 1.4 3 0.6 3.3 1.8 1.3 0.2 5.6 1.4 2.8 1.3 1-0.2 3.6 1.1 3.4 0.7 1.1 1.4 2.8 1-0.4-1.6-0.6-1.9-1.7-0.7-2-2.2-1.9-1.7-2.5-1.5-3-1-0.6-1.1-2.1-1.4-0.4-0.6-1.2-0.8-3.5-0.3-3.7 0.3-0.4-0.6-2-0.3-1-0.8 1.8-0.4 1.4 0.6 1.5-0.7 2 0.8 2.1-0.2 1.2-0.2 1.6 0.8 1.1 0.6 0.7 0.6 0.8 0.3 1.4 2 2.5-0.2 1.4 2 1.7 0.2 0.9 0.7 0.8-0.2-0.3-1.6 0.8-1-0.5-0.9v-1.4l-0.4-2.3-1.1-1.7-0.8-1.4-0.2-1.3-1.5-1.1-1.6-1.5-2.1-2.1-1.7-1.2 2.5 0.9 1.7 1 1.4 1.7 2.3 1.1v1.6l1.7 1.7 1.7 3.4-0.5 1.8 1.2 2v2.4l1.2 3 1.8 2.6 1.1 2.1 3.2 2.4 2.2 2 2.5 2.4 0.7 2.9 4.6 2.3 5.8 4.2 4.1 1.1-0.1-1.1-1-2.2 0.3-3.3-0.3-2.3-0.7-1.5-0.9-1.9-1-3.1-0.7-2.1-0.2-1.6-3-2.2-0.8-2.7-1.7-1-1.1-1.5-3.3-1 3.6 0.3 2 1.7 1.5 1 2 2.9 2.1 1.6 1 1.8 1.5 4.9 2.2 2.7-0.1 4.5 1.2 4.6 1.2 3.3 2.1 1.6 2.7 0.2 1.6 1.6 2.5 2 7.1 1.1 2.1-1 0.1-3.1-0.2-3.5 1.4-3.4-1-3.1 0.6-5.3-1.3-2 0.4-3.8-2.1-5.7-2.5-2.5-2.2-3.7-2.7-3.8-1.9-1.4-0.9-3.1 1.2-3.7 2.2 0.2 1.4 3.4 2.2 3.4 1.5-1.5 0.3-4.6 0.3-3.1 0.7-2.5 3.2 0.2 1.3 0.9 0.1 3.7-1 3.2 0.5 3.3-1 3.5 1.2 3.6 2.8 6.2 3.4 5 0.2 6.2 0.9 2.8 3.4 0.4c0 0 3.6-3.2 3.8-3.4 0.2-0.3 4-1.8 4-1.8l0.7-2.1 2.9-3 1.6-2.1 1.7-1.8v-2.8l-0.4-2.8 0.4-2-0.5-2 0.2-3 0.4-2.2-1.2-1.9-0.7-2.4-0.4-1.9 1.6 3.2 1.5 2.4-0.2 3.1 0.8 3.1-0.2 2.9 0.8 1.6v1.1c3.6-2.9 10.8-7 12-7.5 0.2-0.1 0.4-0.1 0.5-0.2 0 0 0 0 0.3-0.2 0.3 4.5-3.2 2.9-4.5 3.9-0.2 0.1-1.4 0.4-2.4 1.3-0.5 0.6-0.5 0.6-1.2 0.8-0.7 0.2-3.6 2.5-4.7 3.5zm-100-46.6q0 0 0 0.1c-0.4 0.1-0.9 0.2-1.3 0.5-0.3 0.1-3.4 0.9-4.4 1-0.3 0-0.7 0.2-0.8 0.2-0.2 0-1 0.2-1.3 0.2-0.8 0-1.1 0.3-1.4 0.4-1.1 0.2-1.1 0.3-1.2 0.3-1-0.1-1.1 0.7-3.6 0.5-0.2-0.1-0.2 0.1-1 0.2-1.6 0.2-2.6 0.6-4 0.2-0.8-0.3-0.8-0.2-1.6-0.4-0.4 0-0.5-0.1-0.4-0.5 0.1-0.1 0.1-0.2 1.4-0.2 0.9 0 0.9-0.1 1.7-0.3 2.3-0.4 3.1-0.3 3.3-0.2 2 0.3 2-0.1 3.6-0.2 1.1 0 1-0.3 2.1-0.7 0.6-0.3 2.5-0.3 3.9-0.1q0.3 0 0.6-0.1c0-0.2 0.1-0.1 0.4-0.3 0.2-0.2 0.2-0.1 0.5-0.2 0.1-0.1 0.2-0.1 0.3-0.2 0.3-0.1 0.4-0.9 0.2-1.1q0 0-0.1-0.1c-2.4-0.8-3.3-1.2-5.5-1.6-0.8-0.1-2.1-0.7-2.9-0.9-1.1-0.2-3.9-1-3.9-1-0.6-0.5-2.1 0-1.3-1.8 0.1-0.2 1.7 0.4 3.3 0.6 2.3 0.4 5.5 1.5 5.5 1.6 0.9 0.6 2.4 0.3 9.5 2.9 7.7 2.8 7.5 3.5 11.1 4.1 0.6 0 3.9 0.6 6.4 2.3 0.1 0.2-1.1 1.7-1.3 1.7-4.7-0.2-6.7-1.8-9.1-3-3.2-1.6-3.1-1.8-3.4-1.9-0.5-0.2-1.4-0.6-1.5-0.6-0.1-0.1-2.2-0.8-3.8-1.4zm112.7 23.5c-0.2 0.2-0.8 0.4-0.8 0.4l-0.4 1.4c0 0 0.1 0.9-0.1 1.8 0 0.3-0.3 0.2-1.1 3.5-1.4 5.6-1.2 5.7-1.6 6-0.3 0.4-1.8 2.5-1.8 1.6 2.1-6 2.6-12.8 2.6-12.8 0 0 1.1-1.9 1.5-2.3 0.1-0.1 0.1-0.6 0.1-0.6l2.1-2.5 0.2-0.7 0.7-0.7 0.2-0.9 1.1-1c0 0 0.3-0.8 0.5-1 2.2-2.3 3.5-5.2 3.8-5.7 1-2.3 5.4-9 5.6-9.5 0-0.1 1.1-2.9 1.4-0.7 0.1 0.3-8 14.1-8.8 15.5-0.2 0.3-1.1 1.2-1.1 1.2l-0.2 0.7-0.9 0.9-0.5 1.1-0.7 0.5-0.1 0.6-0.5 0.8c0 0-0.2 0.6-0.4 0.9 0.1 0 1.9-0.5 2.2-0.5 1.6-0.1 1.8-0.4 2.6-0.3 0.5 0 1.1-0.3 1.7-0.2 0.1 0 0.3 0.1 1.3 0 0.6 0 0.6 0.1 1.2-0.2 0.8-0.3 0.8-0.3 1.2-0.4 0.3 0 0.7 0.9 0.6 1.1-0.3 0.9-1.3 0.6-3.6 0.5-0.5 0-0.6 0.2-1 0-0.2 0-0.5-0.1-0.5-0.1 0 0-0.4 0-0.8 0.2h-0.5c0 0-0.7-0.1-1.2 0-0.1 0-0.1 0.2-0.2 0.2-0.4 0-0.7-0.1-1.3 0.1-1.3 0.4-1.2 0.4-1.5 0.5-0.1 0-1 0.6-1 0.6zm-70.1-24.4c-0.1 0.1-0.2 0.2-0.2 0.2l-0.1 1.1-0.6 0.5-0.1 0.4-0.1 0.8c0 0-0.8 0.7-0.9 1-0.1 0.6-0.4 0.5-1 1.3 0 0.1-0.6 0.9-0.7 1-0.1 0.1 0 0.5-0.2 0.6 0 0.1-0.1 0.2-0.1 0.3-0.1 0-0.6 0.3-0.9 0.1-0.1-0.1-0.7-0.2-0.6-0.3 0.3-0.3-0.1-0.7 0.6-1.5 1.6-1.9 1.4-2 1.7-2.5 0.4-0.8 0.6-1.5 0.6-1.5l0.6-0.8 0.1-0.5 0.6-1 0.4-0.6 0.4-0.5 0.2-0.7c0 0 1.4-1.8 1.9-2.8 0.4-0.9 0.4-0.9 1.1-1.7 0.5-0.7 0.2-1.5 0.8-1 0.1 0 0.3 0.9-0.3 2.1-0.4 1.1-0.2 1.2-0.8 1.7-0.3 0.3-0.2 0.3-0.4 0.5-0.8 0.8-0.7 0.9-0.9 2-0.1 0.4-0.2 0.5-0.6 1 0.2 0 0.4 0 0.9 0.1 0.5 0.1 0.6-0.1 0.8 0.1 0.3 0.3 1.6 0.5 1.7 0.5 0.2 0 0.5 0.2 0.9 0.2 0.2 0.1 0.6 0 0.6 0 0 0 0.6 0.1 0.7 0.2 0.3 0.1 0.1 0.1 0.3 0.5 0.1 0 0.1 0.2 0.1 0.2h-0.4l-0.6-0.3h-0.7c0 0-0.9-0.2-0.9-0.2-0.5-0.2-0.5-0.1-0.6-0.2-0.8-0.2-1 0.2-1.4 0.1-0.5-0.1-0.8 0-1.5-0.3-0.2-0.1-0.3-0.1-0.4-0.1z"/><path fill-rule="evenodd" class="b" d="m136 13.1c1.4 1.6 4.8 6.2 4.8 6.2 1.7-0.9 6.1-3 6.1-3 1.2-1 3.7-2 3.7-2 0.4 0.5 1.4 5.3 1.4 5.3 0.1 0.5 0.1 3.3 0.1 3.3 0.9 1.4 1.5 1.8 1.5 1.8 0.6 0.1 2.6-0.5 2.6-0.5 1.8-1.2 3.6-1.4 3.6-1.4 1.7 1.2 3.1 2.5 3.1 2.5 0.3 1.2 0.8 2.5 0.8 2.5 1.2 0.2 2.5 0.6 2.5 0.6 1.5 0.4 4.6 3.4 4.6 3.4l0.7 1.2c1.4 0 2.6 3.8 2.6 3.8 0.2 0.7 2.2 2.4 2.2 2.4 1.5-0.2 6.3-1.5 6.3-1.5l2.3-1.8c0.6-2.7 1.4-4.9 1.4-4.9 1.2-0.2 5.5 1.8 5.5 1.8 0.8 0.2 4.9 3 4.9 3 0.4 1.3 1.6 3.9 1.6 3.9 1.3 0.1 5.7 1.5 5.7 1.5l0.3 3.7 0.2 1.8 1.4 2.7c0.2 2 0.6 4.5 0.6 4.5 0.5 2 2 4.7 2 4.7 1.5-0.4 4.3 0.3 4.3 0.3 1.7-0.8 5-1.7 5-1.7 2.2 3 3.8 5.6 3.8 5.6 0.1 1.6-0.2 4.6-0.2 4.6-0.1 1.3 0.7 3.6 0.7 3.6 0.1 0.4 0 0.6 0 0.6 0.4 0.2 1.5 0.9 1.5 0.9 1.2 0 4.6 0.2 4.6 0.2l2.5 3v3.7c0 0.8 1.4 2.5 1.4 2.5 0.5 0.1 1.3 1.5 1.3 1.5 0.9 0.8 4.7 2.4 4.7 2.4 1.7 0.6 4.5 1.3 4.5 1.3 1.1 0.8 2.7 1.9 2.7 1.9 0.2 1.2 0.1 4.1 0.1 4.1l0.7 0.9 2.5 3c0.3 2 3.3 11 3.3 11 0 0.4-0.1 2.6-0.1 2.6-0.2 0.5-0.6 1.9-0.6 1.9-0.3 0.5-1 1.6-1 1.6-0.1 1.5 1.8 7 1.8 7 1.3 0.8 3.2 3 3.2 3v2.4c-0.4 1.6-1.6 3-1.6 3l-0.4 1.2c0 1.9 0.7 3.8 0.7 3.8l0.1-0.8c0.1 0.5 2 5.3 2 5.3 0 0.4-1 5.2-1 5.2l-1.1 1.9c-0.1 1.1 0.7 4.2 0.7 4.2l-1.9 4.5c-0.7 0.5-1.7 1.3-1.7 1.3-1 0.2-3.6 0.2-3.6 0.2-1.9-0.2-4.9 0-4.9 0-0.8-0.2-5.2 0.7-5.2 0.7-0.1 0.7 0 1.4 0 1.4 0.7 0.9 1.4 1.8 1.4 1.8 0.7 0.4 1.4 1.7 1.4 1.7-0.5 0.7-0.7 1.5-0.7 1.5 0.5 1 1.9 2.8 1.9 2.8 0.8 1.4 1.3 2.7 1.3 2.7 0.4 1.7 2.9 4.9 2.9 4.9 0 0.8-0.1 2.8-0.1 2.8-0.4 0.8-1.4 1.9-1.4 1.9-1.8-1-2.7-2.4-2.7-2.4-0.5 0.2-1.3 1-1.3 1l-0.2 2.2c-0.1 0.5-0.9 2.2-0.9 2.2q-1.2 0.7-2 1.1c-0.9 0.6-1.4 0.7-1.4 0.7-2-1.1-2.4-1.6-2.4-1.6-0.5-2-0.5-3.8-0.5-3.8 1.5-1 2-1.3 2-1.3 1.1-0.7 1.8-1 1.8-1 0.7-2.1 0.8-2.6 0.8-2.6-0.2-1.1-0.5-2.4-0.5-2.4-0.2-1.8-0.2-2.6-0.2-2.6 0-1.7-0.8-3.4-0.8-3.4-0.3-2-0.4-2.8-0.4-2.8-0.9-1.9-1.3-2.6-1.3-2.6-0.8-0.4-2.1-0.4-2.1-0.4-0.4 0.2-1.3 2.3-1.3 2.3-1.3 1.8-1.5 2.8-1.5 2.8l-0.5 1.3c-2-0.1-2.3-0.5-2.3-0.5-0.7-1-1.5-1.8-1.5-1.8-0.7-0.8-1.2-2.6-1.2-2.6-0.6-0.3-2.4-0.8-2.4-0.8-1.8 0-3.8 0.5-3.8 0.5-0.9-0.2-1.6-1.2-1.6-1.2-0.6-1.7-0.8-3.3-0.8-3.3-0.7-0.9-2.1-2.4-2.1-2.4-2.6 0-5.8 0.4-5.8 0.4-1.1 0.2-1.9 1.3-1.9 1.3-3.1 0.4-7.2 0.9-7.2 0.9-2.2 0.3-4.8 1.9-4.8 1.9-1.3 0.7-2.4 2-2.4 2-1 0.1-2.3 0.6-2.3 0.6-1.5-1.3-2-2.3-2-2.3l-0.3-1.4 0.5-1.2c0.8-1.2 2.8-3.6 2.8-3.6v-2c-0.6-1.4-2.6-2.4-2.6-2.4-0.8-0.8-1.8-1.4-1.8-1.4-0.9-0.2-3.4 0-3.4 0-1.4 0.3-5.4 3.4-5.4 3.4-0.8 1-1.3 2.1-1.3 2.1-0.3 0.9-0.9 3-0.9 3-0.3 0.9-0.6 4.1-0.6 4.1l-1.2 1.3c-1.3 0.2-4.6 1.2-4.6 1.2-1.7 0.6-3 3-3 3-1.2 0.8-1.5 0.9-1.5 0.9-1.3-1.3-3-4.4-3-4.4-0.4-1-2.5-2.6-2.5-2.6l-0.5-0.1c-0.2-1.4-0.5-3.3-0.5-3.3-1.5 0-9.1 0.5-9.1 0.5-0.1 0.5-0.9 1.4-0.9 1.4-0.9 0-3-0.1-3-0.1l-4.8 0.1 0.2 3.2-2.7 0.4c-0.4 0-3.3-0.9-3.3-0.9l-0.4-3.3-1.3-1.8-1.5-2.3-2.1-0.2-0.8 2.3c-0.1 0.8-0.7 3.3-0.7 3.3-0.7 0.4-4.6 0.8-4.6 0.8-1.8-0.3-3.6-0.8-3.6-0.8-0.5-0.6-1.3-1.7-1.3-1.7-0.2-0.6-1.2-1.1-1.2-1.1l-1.1-0.4-1.2-2.6c-0.1-0.3-0.1-1.4-0.1-1.4 0-0.5-1.1-1.7-1.1-1.7 0-0.8-0.5-3.5-0.5-3.5 0-0.5 0.9-1.7 0.9-1.7 0.3-0.1 0.7-0.1 0.7-0.1 0.8 0.1 3.7 0.5 3.7 0.5 1.5-0.5 2.7-1.1 2.7-1.1 0.3-0.8 0.6-1.7 0.6-1.7 1.1-0.5 3.7 0.1 3.7 0.1h0.7c0.6-0.6 1.1-2.3 1.1-2.3 0-2.2 0.5-3.4 0.5-3.4 0.6-0.8 2.2-1.9 2.2-1.9 0.5-0.7 0.6-1.3 0.6-1.3 2.3-1 7.7-1.1 7.7-1.1 0.1 0.3 0 2.9 0 2.9 0.5 0.3 4.6 0.7 4.6 0.7 0.7-1.4 1.1-3.4 1.1-3.4 0.8-0.6 2.8-1.2 2.8-1.2l-1.6-1.5c-1.4-0.2-4.8 0.1-4.8 0.1-1.1 0-4.1-0.4-4.1-0.4-0.3-0.2-4-0.7-4-0.7l-0.8 0.3c-0.5-0.3-2.5-1.1-2.5-1.1-0.4 0-1.3 0.2-1.3 0.2-0.5 0.8-1.4 2-1.4 2-2 0.4-3.1 0.4-3.1 0.4-0.4 0.1-1.9 2.2-1.9 2.2l-0.3 1.5c0 0.5-0.6 2.6-0.6 2.6-1.3 1-3.1 1.7-3.1 1.7-2.3 0.2-4.2 0.6-4.2 0.6-0.8 0.7-1.4 1.6-1.4 1.6-0.3 0.6-0.8 2.2-0.8 2.2-0.5 0.6-1.7 1.5-1.7 1.5-0.6 0.8-0.9 3.6-0.9 3.6-0.3 0.3-2.4 2.1-2.4 2.1-1.8 0-3.1-0.4-3.1-0.4-1.1-0.1-4.4 0.4-4.4 0.4-1.1 0.6-2.5 2.9-2.5 2.9-0.3 0.8 3.4 1.6 3.4 1.6 1.4-0.3 2.1-0.8 2.1-0.8 1.2-0.7 2.6-1.2 2.6-1.2 1-0.1 2.7 0.9 2.7 0.9 0.4 0.7 0.8 1.5 0.8 1.5 2.3 0 3.7 0.5 3.7 0.5l0.6 1.6c-0.4 1-2.6 1.9-2.6 1.9-1 0.5-0.9 1.6-0.9 1.6 0.7 0.8 2 2.5 2 2.5 1-1.3 2-1.2 2-1.2 1.1 1.4 1.6 3.6 1.6 3.6l-1.7 2.8c-0.7 2.8-0.7 4.1-0.7 4.1l-3 1.1-1.5 0.3c-0.4-0.8-0.7-4.8-0.7-4.8 1-1.6 1.3-3.4 1.3-3.4-0.8-0.5-2.8-0.6-2.8-0.6-1.1 1.5-1.9 4.3-1.9 4.3-0.6 1.6-1.8 3.7-1.8 3.7-0.4 0.5-1.6 1.1-1.6 1.1-0.8-0.3-1.1-2.6-1.1-2.6 0.4-2.2 1.1-3.4 1.1-3.4 0-0.8-0.5-2.3-0.5-2.3 1.7-2 2.2-2.4 2.2-2.4 0.4-1.6 0.2-4.5 0.2-4.5-0.5-0.8-1.4-1.1-1.4-1.1-1-0.2-2-0.5-2-0.5-0.4-0.6-1.1-1.7-1.1-1.7-1.2 0-1.6 0.2-1.6 0.2-0.8 0.9-2.5 3.6-2.5 3.6-0.2 1-1 3.8-1 3.8-1.2 1.2-3.1 3.1-3.1 3.1-0.9 0.2-2.8 1.3-2.8 1.3-2.8 0.9-5 1.7-5 1.7-3.2 1.2-4.7 3.1-4.7 3.1-1.2 2.3-1.4 3.1-1.4 3.1-1.7-0.1-3.7-2.7-3.7-2.7-0.3-1.1-0.4-1.6-0.4-1.6-0.1-0.3-5.2 1.7-5.2 1.7-0.2-0.4-0.2-3.9-0.2-3.9 0.9-0.8 1.6-1.3 1.6-1.3 0.6 0 2.5 0.6 2.5 0.6 0.7 0.3 2.3 1 2.3 1 0.8-1.3 1.2-2.2 1.2-2.2 0.3-1 1-2.3 1-2.3 1.4-1.8 4.1-3 4.1-3 2-0.7 3.6-1 3.6-1 0.5-1.6 1.1-2.9 1.1-2.9 2.1-1.4 2.6-1.5 2.6-1.5 1.4-0.3 2.9-0.4 2.9-0.4 1.1-1 1.9-1.8 1.9-1.8 0.3-0.2 1.9-0.9 1.9-0.9 2.2-1.1 3.6-1.8 3.6-1.8 1.1-0.9 2.5-2.4 2.5-2.4 2-2.4 2.1-2.5 2.1-2.5 0.7-0.2 1.2-0.3 1.2-0.3l3.4-1.9-0.1-0.6c-1.5-0.5-4.4-1.4-4.4-1.4-1.2-1.6-2-3.6-2-3.6 0-1.1-1.6-2.3-1.6-2.3-1.4-1.9-1.6-3.3-1.6-3.3-0.1-0.5-0.2-1.2-0.2-1.2v-1.9c0.6-2.1 0.9-2.6 0.9-2.6 0-0.5-2.2-1.9-2.2-1.9-0.3 0-1.3 0.3-1.3 0.3-0.3 0-0.8 2.2-0.8 2.2-0.2 0.6-0.6 4.3-0.6 4.3-0.1 0.8 0 3.8 0 3.8-0.9 1.3-2 1.9-2 1.9-1.4-0.2-2.5-0.3-2.5-0.3-1.5-0.4-2.3-1-2.3-1-0.6-1.9-0.9-3.7-0.9-3.7 0-0.9-0.7-1.8-0.7-1.8-0.4-0.6-0.5-2.3-0.5-2.3 0.5-2.3 1.2-3.6 1.2-3.6 0.3-1.2 0.3-2.3 0.3-2.3-1.3-0.2-2.4 0-2.4 0l-1.4 1.5c-2.8-0.6-6.3-1.5-6.3-1.5l-1.9 4.4c-0.2 0.4-0.2 1.7-0.2 1.7 0.1 0.3 0.4 1.6 0.4 1.6-2 1.4-3.2 2.6-3.2 2.6-0.7 0.2-1.9 0.9-1.9 0.9-0.5 0.3-1.6 0.9-1.6 0.9-1.4-1.4-1.8-1.9-1.8-1.9-0.6 1.4-0.7 2-0.7 2 0.5 0.8 1.5 1.7 1.5 1.7 0.6 0.4 2.5 0.7 2.5 0.7 1.9-1.7 4-1.7 4-1.7 1.6 0.3 4.2 1.5 4.2 1.5 1.4 0.2 3.1 0.6 3.1 0.6 1.5-0.5 3.6 0.3 3.6 0.3 0.4 2.3 1.7 2 1.7 2 0.6-0.3 1.5 0.1 1.5 0.1 0.9-0.4 1.6-1 2.9-1 0.4 0.1 0.8 0.6 1.3 0.8 0.4 0.1 0.2-0.1 1.2 0.1 0.3 0.1 0.9 0.5 0.9 0.6 0.2 0.3 0.7 0.6 0.8 1 0.1 0.6-0.3 1.3-0.3 1.3-0.3 0.7-1.7 1.8-1.7 1.8-0.7 0.5-1.8 1.2-1.8 1.2-2.6 0-4 0.5-4 0.5-1.9 1.2-2.5 2.2-2.5 2.2-0.1 0.4-0.3 2.5-0.3 2.5-0.6 0.7-2.1 2.2-2.1 2.2-2.6 0.5-3.2 0.6-3.2 0.6-1.5 0.7-3.6 2.4-3.6 2.4-2.3 0.7-3.7 1.2-3.7 1.2-3.3-0.3-3.7-4.5-3.7-4.5 0.6-0.3 2.9-1.2 2.9-1.2 0.3-1.4 0.2-3.1 0.2-3.1 2.9-1.4 6.3-1.7 6.3-1.7 2.2 0 3.5-0.1 3.5-0.1 0.9-0.7 2.3-1.9 2.3-1.9-0.4-1-3-1.6-3-1.6h-7.6c-0.5-0.4-1.1-0.6-1.1-0.6-1.7 0.4-3.8 3-3.8 3-0.6 0.4-1.5 1.9-1.5 1.9-0.8 0.5-2.3 1.2-2.3 1.2-1.4 0.1-4.4 0.4-4.4 0.4-0.5-0.9-0.5-2.1-0.5-2.1 0.4-0.7 4.6-4.3 4.6-4.3l2.7-2-0.1-0.6h-1.9c-2.8 0.1-7 1.2-7 1.2-0.8 0.1-2.4-0.7-2.4-0.7-0.4-0.7-1.1-1-1.1-1l-0.4 0.8-1.1 1.7c0 1.9 0.6 3.1 0.6 3.1 0.5 0.5 1.9 3.8 1.9 3.8 0 1.7-1.3 3.8-1.3 3.8-2 0.5-3.6 0.6-3.6 0.6-0.7 0.5-2 2.1-2 2.1-1.1 0.7-1.4-0.1-1.4-0.1-0.3-1.6-0.3-1.9-0.3-1.9 1-1.6 4-4.8 4-4.8l-0.2-1.4c-0.8-2.1-1.6-4.5-1.6-4.5-0.1-2.1-0.1-3.3-0.1-3.3-0.2-0.8-1.4-1.4-1.4-1.4-0.8-0.2-2.3 0.7-2.3 0.7-0.7 1.2-1.2 3-1.2 3-0.4 1-2.1 4.7-2.1 4.7-1.6 0.6-2.8 1.8-2.8 1.8-0.4 1.6-0.3 3.8-0.3 3.8-0.1 0.4-1.3 2.3-1.3 2.3-2.1-0.5-3.7-1.1-3.7-1.1-0.6-0.2-1.8-2.2-1.8-2.2 0-2.4 0.3-2.8 0.3-2.8 0-1.4-0.1-1.6-0.1-1.6-0.7-0.1-1.6-0.1-1.6-0.1-1.9-0.3-4.6 0-4.6 0-1.2 0.4-1.8 0.6-1.8 0.6-2.4 0-3.5-0.2-3.5-0.2-0.1-0.9 0-1.9 0-1.9 3.5-1.3 5.5-1.8 5.5-1.8 0.8-0.5-0.2-1.5-0.2-1.5-0.4-0.5-2.6-1.6-2.6-1.6-1.9 0-3.3 0.9-3.3 0.9-1 0.7-2.8 1.8-2.8 1.8-1.1 1.5-1.1 3.7-1.1 3.7-1.2 1.7-2 5.6-2 5.6-0.3 0.5-0.5 3.6-0.5 3.6v1.9c-4.1 0.1-5.9-0.2-5.9-0.2-0.5-1.7-0.1-4.5-0.1-4.5 0.4-1.6 1-2.8 1-2.8 0.4-1.5 2.2-3.9 2.2-3.9 0-0.7 0.1-2.8 0.1-2.8-0.1-0.8-0.1-1.6-0.1-1.6 0.1-1.2 0.6-2.3 0.6-2.3 1.7-2 2.2-2.3 2.2-2.3 1.5-0.6 3.9-1 3.9-1 0.5-0.4 1.1-1.5 1.1-1.5-0.6-0.3-1.5-0.6-1.5-0.6-0.3-0.2-2.4-0.1-2.4-0.1-1.1 0.2-2.1 0.8-2.1 0.8-1.9 0.8-3.4 1-3.4 1-1.7-0.4-2.8-1.1-2.8-1.1-0.5-1.3-0.7-2.1-0.7-2.1 0-1.1 0.1-2.1 0.1-2.1 0.7-0.7 0.8-0.8 0.8-0.8 1.4-1 2.4-1.1 2.4-1.1h5.7c2.1 0.4 3.3 1.1 3.3 1.1 0.2 0.3 0.3 0.8 0.3 0.8 0.1 0.3 0.6 0.7 0.6 0.7 0.8 0.1 1.5 0 1.5 0 0.7-0.7 1.1-1.2 1.1-1.2 0.5-0.9 0.9-1.7 0.9-1.7 0.1-0.6 0.3-1.9 0.3-1.9-0.2-0.7-3-1.1-3-1.1-0.7 0-2.5-0.7-2.5-0.7-0.7-0.7-1.7-2.9-1.7-2.9l-0.5 0.1-2.8-0.8-1.1-1.6c-0.2-1.3-0.5-2.1-0.5-2.1-1.3-0.6-1.6-1.8-1.6-1.8v-2.2c0.1-0.7 0.4-1.1 0.4-1.1 0.2-0.4 0.8-1.3 0.8-1.3 0.7-0.8 0.9-0.8 0.9-0.8h1.8c0.4 0 1.2-1 1.2-1 0.6-0.9 0.6-1 0.6-1 0.4 0 2.9 0 2.9 0 2.3 0.3 5 0.5 5 0.5h2.7c0.3 0 3.8 0 3.8 0l0.6-0.8v-3.5c-0.1-0.5-0.4-1.2-0.4-1.2-0.6-0.2-1.8-0.3-1.8-0.3h-2.9c-1.9 0-3.1-0.1-3.1-0.1-2-0.3-3.8-0.8-3.8-0.8-0.5-1.3-0.6-2.1-0.6-2.1-0.1-0.5-0.2-2.1-0.2-2.1v-2.5c0.1-0.8 0.5-1.7 0.5-1.7 0.9-1 1.8-1.6 1.8-1.6l1.5-0.9c0.4-0.6 0.9-2.8 0.9-2.8v-1.9c0.3-0.5 1.4-1.4 1.4-1.4 0.4-0.2 1.1-0.5 1.1-0.5l0.8-2.1-1.1-2.6-0.1-4.3c0.1-0.1 1-2 1-2 0.6-1.2 2.3-2.4 2.3-2.4 1-1.2 2.6-2.7 2.6-2.7l1.4-1.4 1.4-3.3-0.3-2.2c0.1-1.1 1.7-3.1 1.7-3.1 0.3-0.4 1.5-1.1 1.5-1.1 0.8-0.5 2.2-0.9 2.2-0.9l1.8-0.4c0.5-0.2 1.5-1.4 1.5-1.4-1.3-1-1.7-1.2-1.7-1.2-0.1-0.7 0.2-2.5 0.2-2.5 0.8-1 2-1.8 2-1.8 0.9-0.1 2.3 0.6 2.3 0.6 1.3 0.3 2.5 0.9 2.5 0.9 1.1-0.6 2.2-1.6 2.2-1.6 0.8-1.4 0.9-2.6 0.9-2.6-0.1-0.8-0.1-0.9-0.1-0.9 0-0.6 1-2.5 1-2.5 1.4-0.7 2.5-0.9 2.5-0.9l2.1 2.4c0.5 1.8 1.4 3.3 1.4 3.3 1.2-0.3 3.2-1.5 3.2-1.5 0.4-1.1 0.8-2.5 0.8-2.5 0-1.4-0.2-2-0.2-2-0.1-0.5-0.1-0.8-0.1-0.8l-0.7-3.9 0.3-0.7c1.5-1.2 2.5-2 2.5-2 1-0.9 1.7-2.6 1.7-2.6 0.2-2.5 0.5-2.8 0.5-2.8 0.9-0.3 4.5-0.9 4.5-0.9 0.9-0.3 5.1-1.4 5.1-1.4l1.6 2.5c0.2 1.5-0.4 3.1-0.4 3.1 0.5 0.5 1.8 0.9 1.8 0.9 0.5 0.4 1 3.1 1 3.1-0.1 0.6-1.3 3-1.3 3l0.3 3c0.7 0.4 1 0.5 1 0.5 0 2.4-1 4.2-1 4.2 0.6-0.4 2.3-1.6 2.3-1.6h1.1c2.1 2.7 2.4 4.1 2.4 4.1 0 0.4-0.6 2-0.6 2-0.2 1-0.2 3-0.2 3l0.8 1c-0.6 0.5-3.2 2.4-3.2 2.4-0.9 0.5-1.6 1.4-1.6 1.4-0.1 2.2 0.9 4.9 0.9 4.9 1.3-1.1 3-2.5 3-2.5 1.4-0.9 2.9-1.7 2.9-1.7 0.5 0 1.3-1.3 1.3-1.3 0.9 0 2.9 0.7 2.9 0.7 0.8 0.1 5.2-0.1 5.2-0.1 0.9-0.7 3.3-1.1 3.3-1.1h3.5c1.4-0.8 1.6-1.7 1.6-1.7-1-0.2-2.6-0.2-2.6-0.2-1.2-0.2-2.3-2.2-2.3-2.2-0.1-1.2-3.2-2.2-3.2-2.2-1.1-2.3-1-4.5-1-4.5 0-1-1.2-1.4-1.2-1.4-1.1-2-2-4.2-2-4.2 0.7-1.9 0.8-2.6 0.8-2.6-0.3-0.6-0.9-1.4-0.9-1.4-1.4-2.6-2.5-4.8-2.5-4.8-0.4-1.7-0.3-2.5-0.3-2.5-1.1-0.7-3.7-1.6-3.7-1.6-0.2-2 0.9-5.3 0.9-5.3 1.1-0.6 1.9-0.9 1.9-0.9 2.5 0.1 5.1-0.3 5.1-0.3 3.1-3.4 4.3-4.3 4.3-4.3 1.7-0.1 2.7 0 2.7 0 1.2 0 6.5-2 6.5-2 2.2 0.8 3.1 2.3 3.1 2.3 0.6 1.9 0.5 4.6 0.5 4.6 1.3 0.9 3.7 2.8 3.7 2.8 0.2 3.1-0.3 6.6-0.3 6.6 2.1 0.2 3.5-0.1 3.5-0.1 1.2-2.9 1.3-4.9 1.3-4.9 2.5-1.7 4.3-1.5 4.3-1.5 4.3 2.6 6 4.5 6 4.5 1 1.9 1.7 3.5 1.7 3.5h4.3c1.1-1.1 1.5-2.8 1.5-2.8 1-0.7 5.8-0.8 5.8-0.8 0-2.1-1.1-5.7-1.1-5.7-0.7-1.4-2.7-3.7-2.7-3.7-0.8-1.4-1.5-1.9-1.5-1.9 0.3-1.4 1.1-2.6 1.8-3.4 0.7-0.9 1.3-1.4 1.3-1.4 1.5-0.2 3.3-0.2 3.3-0.2zm-88.9 63c0.4-0.3 1.6-0.5 1.2-1.1-0.1-0.3 0-0.7 0-1.1-0.3-0.3-0.6-0.4-0.7 0.1-0.1 0.8-1.8 1-0.5 2.1zm5.7 9.2l-1.4 0.1-1.4 1 0.4 1.3-0.4 1.3c0.1 0.3 0.9 0.9 0.9 0.9l1.2-0.7 0.8-0.5 1.1 0.8 0.5-1.7v-1.7zm115.8 29.5h-0.7c0 0-0.3 0.3-1.1 1 0 0 0 0.4 0.1 1l1.6 1.7 0.8-0.1h1.5c0 0 0.3 0 0.7-0.1 0 0 0.3-0.9 0.2-1.2l-0.6-1c0 0-0.4 0-0.8 0l-0.4-0.6c0 0-1.1-0.7-1.3-0.7zm-141.4 16.6c-0.8 0-1.9 0.1-3 0.6 0 0-0.7 0.6-1.3 1.1 0 0-0.8 0.8-1.3 1.5 0 0-0.8 1.1-1.1 1.5 0 0 0 1 0.1 2.2 0 0 2.4 0.2 2.8 0.1l1-0.8 0.7-1.1c0 0-0.1-0.7-0.2-1.2 0 0 1.3-1.1 3-1.9 0 0 0.2-1.6 0.2-1.9 0 0-0.4-0.1-0.9-0.1zm46.8-33.6c0 0-0.1 0.1-0.6 0.8 0 0-0.2 0.4-0.2 0.8 0 0 0.1 0.5 0.5 1l0.2 0.3c0 0 0 0.5 0.1 1.2 0 0 0.1 0.3 0.8 1.1 0 0 0.1 0 0.5 0l0.5-0.7 0.7-1.5c0 0 0-0.2 0.1-0.3l0.4-0.2c0 0 0.2-0.7 0.2-1.2 0 0-0.7-0.1-1.2-0.1l-0.8 0.1-0.3-0.1c0 0-0.3-0.8-0.4-1 0 0-0.2-0.2-0.5-0.2zm112.9 13.2c0 0-0.8 0-1.5 0.2 0 0-0.1 0.1-0.4 0.7 0 0 0 0.2 0.4 2 0 0 0.1 0.1 0.8 0.1 0 0 0.7-0.3 1.4-0.8 0 0 0-1-0.1-1.5l-0.1-0.4zm-61.5-47c-0.4 0-0.7 0-1 0 0 0-0.9 0.6-1.1 0.8 0 0-0.2 0.3-0.5 0.9 0 0 0 0.1-0.2 0.6q0 0-0.4 0.3c0 0-0.7 0.4-0.9 0.5 0 0-0.3 0.3-0.8 0.7 0 0-0.4 0.4-0.4 0.6v0.6c0 0 0.1 0.2 0.3 0.4l0.4 0.3c0 0 0.1 0-0.1 0.6 0 0 0 0.2 0 0.6 0 0 0.1 0.5 0.2 0.8 0 0 0.3 0.3 0.5 0.5 0 0 0.2 0.3 0.2 0.6 0 0 0 0.3 0.1 0.7l0.5 0.9c0 0 0.1 0.6 0.4 0.6 0 0 0.8-0.1 1.2-0.1 0 0 0.6-0.3 0.7-0.4 0 0 0.3-0.5 0.5-0.8l0.2-0.6 0.6-0.6 0.2-0.2c0 0-0.1-0.9-0.1-1.1l-0.4-0.4-0.3-0.4c0 0-0.3-0.2-0.4-0.3 0 0 0.1-0.5 0.1-0.6 0 0 0.2-0.3 0.3-0.4 0 0 0.2-0.5 0.5-0.8 0 0 0-0.9 0-1 0 0 0.2-0.3 0.2-0.5 0 0 0.2-0.5 0.5-0.7l-0.1-1.3-0.4-0.8c0 0-0.2 0-0.5 0zm-100 56.6c0 0-0.7 0.5-0.7 1 0 0 0.4 1.2 0.8 1.2 0 0 0.9 0 1.3 0 0 0 1.9-0.3 2.5-0.6l0.4-0.4-0.2-0.2c0 0-1.4-0.5-1.7-0.4 0 0-1.3-0.4-1.6-0.6zm153.2 9.1q-0.2 0-0.3 0c0 0-1.5 0.3-2.2 0.8 0 0-0.6 0.4-1 1.1v0.8c0 0-0.2 1.3-0.7 2.3l-1.1 0.2c0 0-1 0.2-1.6 0.9 0 0-0.2 0.5-0.2 1.1 0 0 1.5 1.9 1.7 1.9 0 0 2-0.4 2.4-0.4l1.5-0.2 0.1-1c0 0 0.5-0.2 1.1-0.2 0 0 1.3 0 1.9 0 0 0 0.2-1.3 0.2-1.9 0 0-0.1-0.6-0.1-1 0 0 0.4-0.7 0.8-1.4l0.4-2.8c0 0-2.2-0.2-2.9-0.2zm-123.9-7.4c-1.5 0.2-3.5 0.9-3.5 0.9-0.8 0.1-1.5 0.2-1.5 0.2-0.5 0.5-0.6 1.4-0.6 1.4l-0.3 1.4c0 0.9-0.3 1.3-0.3 1.3-0.5 0.3-1.9 0.7-1.9 0.7l-0.6 1.4c0.4 0.8 1.2 1 1.2 1l-0.1 1.4c-0.7-0.1-0.9 0.3-0.9 0.3 0.5 0.5 2.4 0.9 2.4 0.9 1-0.4 1.8-0.6 2-0.4 0.1 0.1-0.1 2.4-0.1 2.4-0.1 0.5 0.6 1.4 0.6 1.4 0.6 0.2 3.3 0.2 3.3 0.2 1.3-1 2.2-1.8 2.2-1.8 0.4-0.2 0.6-0.2 0.6-0.2 0.6-0.6 1-1.5 1-1.5-0.1-1.1-0.3-2.5-0.3-2.5-0.3-1.1-0.3-1.7-0.3-1.7 0.4-0.9 1.4-1.7 1.4-1.7l-0.6-1.5c0.7-0.8 1-1 1-1-0.2 0-2-0.3-2-0.3-0.5-0.3-0.9-0.6-0.9-0.6-0.2-0.8-0.5-1.5-0.5-1.5-0.3-0.2-1.3-0.2-1.3-0.2zm-11.1-46.5l-0.4 0.3c0 0 0 0.6 0.2 1.7 0 0 0.5 0.2 0.9 0.2l1.3 1 1.2 0.2 0.8-0.4c0 0 0.3-1.2 0-1.5 0 0-0.8 0.1-1.5 0.1l-0.9-1.5c0 0-1-0.1-1.6-0.1zm-1.7 52l0.1-0.1c0.4-0.8 1.5-1.2 1.5-1.2 0.4-0.4 0.8-1 0.8-1 0-1.4 0.1-2 0.1-2 0.4-0.5 0.8-0.9 0.8-0.9l-1.8-0.2-1.9 0.2c-0.6 0.2-2.8 1-2.8 1-0.5 0.6-1.1 1.7-1.1 1.7-0.2 0-1.7 0.6-1.7 0.6-0.3 0.2-0.7 1.7-0.7 1.7 0 0.1 0.6 1.1 0.6 1.1 0.7 0.1 3.2 0.9 3.2 0.9l0.8-0.1q0.2-0.2 0.4-0.4c-0.7-2 1.1-1.7 1.7-1.3zm49.7-22c-0.6 0-1.2 0-1.5 0.1 0 0-0.2 0.4-0.4 0.9 0 0-0.2 0.8-0.3 1.6 0 0-0.6 1.6-0.6 2v1.2c0 0 2 1.3 2.4 1.9 0 0 0.9 2.2 1.1 2.7 0 0 2.1-0.1 2.5-0.1 0 0 3 0.5 3.4 0.5 0 0 3 0.8 4 0.1l0.7-2 2.9-3.2c0 0-0.5-1.1-0.7-1.2 0 0-1.2-0.4-1.5-0.5 0 0-1.3-2.1-1.4-2.4 0 0-2.1-1.5-2.6-1.5 0 0-0.9 0.4-1.2 0.4 0 0-1.2-0.1-2-0.1 0 0-2.8-0.3-4.8-0.4zm36.1-36c0.7 0.8 1.3 0.6 1.5 1 0.2 0.4 2.5 0.3 1.5-0.9-0.8-0.9-0.1-1.5-0.7-1.8-0.3-0.3-0.7 0.1-1 0.1-0.3 0-0.8 0.4-0.8 0.4 0 0-0.5 0.6-0.5 1.2zm-57.8 37.8h0.1l-0.2-0.4zm0 0c-0.2-0.1-1.2-0.4-2.2-0.5 0 0-0.6-0.1-1.3 0-0.7 0-1.5 0-2.1 0.1 0 0-0.8 0.2-2.2 1.1 0 0 0 0.5 0.1 1.9 0 0 1.8 1.4 2.7 1.3 0 0 1.9-0.4 2.9-0.5l2.3-1.4zm128-19.9l-2.9 1.4c-2.3-0.9-3.3-0.5-3.3-0.5-0.4 0.4-2 1.1-2 1.1-0.3 0.3-0.1 1.1-0.4 1.6 0 0.1-0.9 0.2-0.9 0.2 0 0.1 1.3 1.1 0.3 0.4-0.7 0.1-1.5 0.7-1.5 0.7 0.7 0.8-1.1 1.9 2.1 2.5 1.2 1 2.6 0.5 2.6 0.5 0.7 0.1 1.9 1.9 1.9 1.9 2.3-0.1 3.7-1.2 3.7-1.2 0.9-0.4 1.9-0.7 1.9-0.7 0.3-1.9 0.3-2.6 0.3-2.6 0-0.3 0.3-1.5 0.3-1.5 1-1.4 0.6-1.7 0.6-1.7-1.1-0.7-1.7-1.2-1.7-1.2zm-10 44.7c-0.4 0.2-0.8 0.6-0.8 0.6-0.1 0.2 0.1 1.5 0.1 1.5 0 0.1 0 0.8 0 0.8 0 0.1 0.5 1 0.5 1 0.2 0 0.9 0.1 0.9 0.1 0.1 0.1 0.6 0.8 0.6 0.8 0.1 0.2 0.7 0.9 0.7 0.9 0.4-0.4 0.8-0.4 0.8-0.4 0.4-0.2 0.9-0.2 0.9-0.2 0-0.2 0.1-0.7 0.1-0.7-0.5-0.8-0.6-0.9-0.6-0.9l-0.2-0.6-0.1-1.5-0.6-0.3c-0.3 0-1.1-0.5-1.1-0.5-0.5-0.6-1.2-0.6-1.2-0.6zm6.3-12.4c-0.3 0.2-0.5 0.5-0.5 0.5 0.2 0.6 0.6 1 0.6 1 1.3 0.4 1.7 0.4 1.7 0.4 0.5-0.4 0.4-0.8 0.4-0.8l-0.1-0.4c-0.7-0.4-1.4-0.6-1.4-0.6zm31.4-6.8c-0.3 0.2-0.5 0.2-0.5 0.4-0.1 0.4 0.6 1 0.6 1 0.6 0.6 1.7 3.1 3.2 3.2 0.9 0 1.5-1 2.1-1.7 0.6-0.6 1.4-1.4 1.2-2.1-0.4-1.2-3.4-1.7-3.4-1.7-0.7-0.4-2.5 0.9-2.5 0.9zm-146.6-47.7q-0.4 0-0.7 0.1c0 0-0.4 0.6-0.7 1.3 0 0-1 0.6-1.6 1.1 0 0-1.9 0.9-2.6 1.5-0.1-0.4-2.4-0.8-3.5 0.8-0.2 0-0.6 1-0.4 2 0.1 0.1-0.4 0.2-0.4 0.2l-0.5 0.4-0.8-1.1-0.7-0.1-0.3-0.6c0 0-0.5-0.3-0.7-0.6 0 0-0.5-1.7-1.2-1.7-0.5 0.1-1.6 1.3-2.2 2.4 0 0 0.6 1 0.9 1.8 0 0-0.3 0.3-0.8 2.1 0 0 0.4 1.2 1.3 2.3 0 0 0.2-0.1 1.3-0.5 0 0 2.2 0.3 3.5 0.6 0 0 0.5 0 2.5-0.8 0 0 1.1-1.3 1.3-2.1 0 0 2-2 4.5-2.9 0 0 1.8 0.1 3.2 0 0 0 1.4 0.1 3.7 0.9 0 0 2.8 0.3 4 0l0.9-1.4 0.8-0.1c0 0 1.6-0.8 2.2-1.2 0 0 1.1-0.9 2.3-1.4 0 0 3.4 0.5 5 0.7 0.2-0.2 5.4-3.4 2.4-3.8 0 0-1.2-0.1-2.5 0.3-0.3 0.1-0.7 0.3-1 0.4l-2.5-0.2c0 0-2.3 0.3-2.9 0.3 0 0-0.6-0.5-1.4-0.9-0.7-0.4-1.6-0.5-2.2-0.4 0 0-0.9 0.2-1.3 0.4 0 0-1.8 2.3-3.3 3.1 0 0-1.3-1.3-1.5-1.9 0 0-2.4-0.9-4.1-1zm-9.9 32.2c0 0-0.2 0.1-0.6 0.5 0 0-0.4 0.3-0.6 0.3 0 0-0.3 0-0.5 0.1l-0.9 0.9c0 0 0 0.4 0.2 1l1.6 0.6h1l0.6-0.4c0 0 0.3-0.3 0.4-0.5 0 0 0-0.5 0-0.7 0 0-0.2-0.2-0.2-0.4 0 0 0-0.4 0-0.6 0 0-0.3-0.4-0.5-0.7 0 0-0.3-0.1-0.5-0.1zm121 30.2l-0.9 0.1c-0.1 0.1-0.6 0.7-0.6 0.7-0.1 0.2-0.6 0.6-0.6 0.6-0.2 0.2-0.3 0.7-0.3 0.7 0.3 0.4 0.8 0.8 0.8 0.8 0.3-0.1 0.5-0.1 0.5-0.1 0.4-0.9 0.9-1.2 0.9-1.2l0.4-0.2c0.1-0.2 0.2-0.6 0.2-0.6-0.2-0.5-0.3-0.6-0.3-0.6zm-144.5-53.2c0.2 0 0.5 0 0.5-0.3-0.1-0.3-0.1-1.4-0.7-1.1-0.5 0.3-0.8 0.3-0.6 0.9 0.1 0.2 0.1 0.3 0.4 0.4 0.1 0.1 0.2 0.1 0.4 0.1zm91 26.8c1-1.5 0.8-1.6 0.3-2.8-0.1-0.4 0-0.4-0.1-0.9-0.7-2-2.7-2-3.7-2.2-0.7-0.2-0.4-0.5-0.8-1-0.5-0.9-1.5 0-1.5 0.6 0 2.1 0.1 2.8 1.6 3.5 0.6 0.3 0.4 0.5 0.8 1.1 0 0.1 0.5 1.2 1.7 2.2 0.7 0.6 1.6-0.3 1.7-0.5zm-105.8 39.6c-0.8 0.2-2.6 0.5-2.6 0.5 0 0.4-0.1 1.4-0.1 1.4 1.1 0.5 1.9 1.2 1.9 1.2 0.6-0.1 1.2-0.3 1.2-0.3l0.2-1.5-0.3-0.4z"/><path fill-rule="evenodd" class="c" d="m79.5 71.7q-0.1 0-0.1 0c-0.1 0 0 0 0.1 0zm0 0c0.2 0 0.5-0.6 2-1.7 0.5-0.4 1.7-2 2.1-2.2q-0.1-0.4-0.3-0.7c-0.2-0.4-0.2-0.4-0.4-0.9-0.5-1-0.8-0.9-1-0.9-0.1 0 0.7 0 0.8-0.1 0.8-0.2 1.4 0.1 1.9-0.1 0.4-0.2 0.4-0.2 0.4-0.2 0.2-0.1 2.2-0.2 1.9 0.4-0.3 0.6-0.3 0.6-0.3 0.6 0 0.1-0.4 0.5-0.4 0.8-0.1 0.4 0 0.4-0.3 0.7-0.3 0.3-0.2 0.3-0.2 0.7 0 0.1-0.5 0.5-0.6 0.7-0.2 0.7 0.6 2 0.5 2.3-0.1 0.4 0.1 0.3 0.5 0.5 0.6 0.2 0.9 0.6 1.7 0.8 0.7 0.2 0.5 0.6 0.3 0.8-0.6 0-0.6-0.2-1.1 0.1-0.5 0.2-0.5 0.2-0.7 0.8-0.1 0.2-2.7-0.4-2.8-0.4-0.3-0.1-0.5-0.2-0.3-0.5 0.2-0.3 0.3-0.3 0.7-0.3 0-0.1 0-0.1 0.1-0.2 0.6-0.3 0.4-1.6 0.4-1.7-0.2-0.4-0.3-0.4-0.5-0.8-0.4-0.8-0.3-1.5-0.3-2.1-0.3 0.3-1.3 1.4-1.3 1.4-0.6 1-1.1 0.8-1.2 1.5-0.1 0.5-0.2 0.4-0.3 0.9-0.1 0.2-0.9-0.1-1.3-0.2zm-4.1 0.8c0-0.5 0.3-0.6-0.1-1.1-0.2-0.2-0.1-0.2-0.3-0.4-0.3-0.3-0.2-0.3-0.4-0.6-0.1 0-0.3-0.3-0.4-0.4-0.3-0.5-0.5-0.4-1-1 0 0 0-0.1-0.8-0.4-0.1 0-0.4-0.2-0.4-0.2-0.1 0-0.1-0.9 1.4-1.5 0-0.1 0.8-0.3 1-0.3 0.7 0 0.3 0.5 0.3 0.6-0.1 0-0.1 0.1-0.4 0.8-0.1 0.4 0.1 0.4 0.1 0.6 0.1 0.3 0.5 0.5 0.7 0.9 0.3 0.5 0.2 0.6 0.7 1 0.1 0.1 0.2 0.3 0.3 0.3 0.2 0.1 0.4 0.4 1.3 0.5 0 0 0.6 0.2 0.7 0.3 0.2 0.2 0 0.7-0.4 0.7-0.5 0.1-0.9 0-1.3 0.1-0.1 0.1-0.7 0.1-0.7 0.1q0 0 0 0c0 0-0.3 0.1-0.3 0z"/><path fill-rule="evenodd" class="d" d="m147.4 105.7c0 0-0.3 0.1-1.4 0.3-1.7 0.4-2.7 0.4-2.7 0.4l-2.3-0.6-3.8-0.3h-2.2l-1.4-0.2-0.8-1.2-2.5-1.5-1.3-1.3c0 0-0.7-0.3-0.7-1.9 0-1.5 0.1 0.2-0.4-2.4-0.5-2.6-0.1-1.2-0.8-3.1-0.7-1.9-0.2-1.4-1.2-2.6-1.1-1.2-2.1-1.7-2.1-1.7 0 0-0.9-1.3-1.6-1.2-0.7 0-2.6 1.5-2.6 1.5 0 0-0.8 1.2-1.3 1.4-0.6 0.3-0.4 1.1-1.9 0.2-1.6-0.9-2.1-1.4-2.1-1.4h-1.9l-2.1-0.3-3.2 1.7c0 0-2.6 0.5-3-1.2-0.3-1.8 0.5-2.4-0.4-3.1-0.9-0.8-3.8-0.9-5.1-1.4-1-0.4-2.6-1.7-2.6-1.7 0 0 0.2-0.2-1.4 0.1-1.5 0.4-2.2-0.1-2.2-0.1l-2.1-0.6-1.2-1.9h-1.9c0 0-0.2 0.9-0.4 1.2-0.4 0.5-0.1 2.6-1.8 1.8-1.8-0.9-2.1-1.8-2.1-1.8l-2.4-1-2.4 1.4c0 0 1.5 2.2-1.2 0.9-2.8-1.4-3.5-2.1-3.5-2.1l-0.7-1.2-0.3-1.6-3.1-0.2-1.6 0.9-1.7-0.7-0.9-0.4q0 0-0.1-0.3c-0.1-0.2-0.1-0.4-0.3-0.4-0.2-0.1-0.5-0.3-0.5-0.3l-0.2-0.5 1.5-0.4 3.5 0.6 2.5-0.8 1.4-2.3q-0.1-0.1 0-0.1c0-0.1 1-1 1.1-1 0 0 1.2-0.6 1.3-0.7 0.2-0.3 0.8-0.7 0.9-0.7 0.5-0.4 1.6-0.3 2.6-0.3 2.7 0 3.8 1.2 8.1 0.9 1.7-0.2 1.6-0.5 1.7-1.1 0-0.3 1.2-0.3 1.6-0.7 0.8-0.7 0.8-0.6 1.8-1.1 1-0.5 1-0.6 1.1-0.7 0.4-0.6 0.6-0.2 1-0.4 1-0.3 3.8 0.5 5 0.4 0.1 0 1.3-0.5 1.5-0.8 0.3-0.4 1.7-1.8 1.5-2.4-0.1-0.3-2.2-0.1-2.7 0-0.1 0-0.2 0-0.2 0v0.1l-0.1 0.1-0.9 0.3c0 0-0.7 0.3-0.9 0.3-0.5 0-0.9-0.2-0.9-0.2 0 0-0.1-0.1-0.3-0.2-1 0.1-1.7 0.1-2.2 0.1q-0.1 0.1-0.2 0.2c-0.5 0.4-0.3 0.1-0.6 0-0.3 0-0.8-0.3-1.1-0.5-0.4-0.1-0.4-0.3-0.5-0.5-0.2-0.1-0.5-0.1-0.5-0.1 0 0-0.4 0.1-0.7 0.1-0.3 0.1-0.5-0.1-0.5-0.1l-0.6-0.1c0 0-0.3 0-0.9 0.1q-0.2 0.2-0.4 0.4c-0.1 0-0.1 0.1-0.3 0.2q0 0.2-0.1 0.3c-0.4 0.3-0.1 0.1-0.2 0.5-0.1 0.3-0.3 0-0.7 0.3-0.4 0.2-2 1.6-2.1 1.5-0.2 0.1-0.5-0.4-1.1-1.3-0.3-0.5-0.3-0.6-0.4-0.7q-0.2 0-0.5-0.1-0.4-0.2-1-0.4c-0.6-0.2-1.4-0.4-2.1-0.3-0.3 0-0.3 0.1-0.7 0.1-0.7 0.1-1.1 1.1-1.1 1.1l-1.2 0.9c0 0-1.7 1-2.2 1.2-0.1 0-0.4 0.3-0.4 0.3l-0.4 0.3q-0.1-0.2-0.3-0.3c-0.2-0.1-0.5-0.1-0.7-0.1-0.9 0-1.8 0.3-1.9 0.7-0.1 1.3-0.7 0.9-0.8 2.2 0 0.3-0.1 0.2-0.7 0.7q-0.3 0.1-0.4 0.2 0-0.1 0-0.1c-0.3 0-0.8-1.1-0.8-1.1h-0.7l-0.3-0.7-0.7-0.6-0.4-1c0 0-0.2-0.2-0.2-0.3-0.1-0.1-0.3-0.3-0.3-0.3l0.4-0.4 0.1-0.3c0 0 0.4 0 0.7 0.1 0.2 0.1 0.2 0.2 0.6 0.1 0.4 0 0.6-0.4 0.6-0.6 0-0.1 0-0.5 0.1-0.9 0.1-0.5 0.3-0.6 0.7-0.8 0.5-0.1 0.8-0.2 1.1-0.3 0.4-0.1 0.7-0.1 1-0.3 0.3-0.1 0.5-0.5 0.8-0.7 0.3-0.2 0.2-0.3 0.2-0.3l0.2-0.2 1-0.7 0.2-0.1c0.4-0.4 1.3-1.1 1.4-1.2 0.2-0.1 1.3-1.1 1.9-1.5 0.1 0 4.3-3 4.3-3 0.1-0.1 2.6 0.6 2.8 0.6 0.8 0.2 5.1 0.1 5.1 0.1 0 0 2.2-0.8 3.3-1.1 0.7-0.2 3.8-0.1 3.8-0.1 0 0 0.3-0.2 0.7-0.4v-0.1l0.4-0.3c0 0 0.2-0.3 0.4-0.6 0.2-0.2 0.2-0.2 0.5-0.6 0.3-0.4 0.2-0.3 0.6-0.6 0.3-0.2 0.5-0.3 0.8-0.4 0.3-0.1 0.9-0.3 0.9-0.3 0 0 0.2-0.1 0.7-0.1 0.4 0 0.6 0.1 0.8 0 0.2-0.1 0.1-0.6 0.1-0.6l1.3-0.6 2.3-1.6 0.2-2.8 0.8-2 2.4-1.1 1.6-0.4h1.7l1.9-2.3c0 0-0.4-1.5 0-3.5 0.4-1.9 0-1.9 0.6-2.3 0.6-0.4 2.9 0 2.9 0l1.5 0.4 1.5-0.6c0 0 0.2-1.3 0.7-1.7 0.6-0.6 3-1.5 3-1.5l1.1 0.3c0.5-0.4 0.9-0.6 1-0.6q0.4 0 0.8-0.1c2.1-0.4 1-2.3 2.3-3.1 1.2-0.8 6.1-0.5 4.6-5.1-0.1-0.3-1.8-3.7-2.4-4.3q-0.4-0.4-0.7-1.1c-0.4-0.5-0.9-1.2-0.9-1.2q0.2-1.1 0.8-2.1c0.2-0.7 0.5-1.2 1-1.5l0.2-0.1q0.5-0.6 1-1.1 0.8-0.1 1.5-0.2c0.6-0.1 1.1-0.1 1.5 0q0.2 0 0.4 0l0.2 0.3q0.5 0.4 0.9 1c0.5 0.6 1.1 1.4 1.7 2.1 0.7 0.9 1.3 1.7 1.7 2.2 0.4 0.1 0.9 0.1 1.3 0.1q2.4-1.3 5.1-2.4c1.1-1 2.4-1.6 3.7-2.1 0-0.2 1 2.4 1.2 3.1 0.8 3.8 0.7 3.8 0.8 4.1 0.4 0.8 0.4 0.8 0.5 0.9 0.9 2.7 5 0.3 6.7 0.4 0 0 1.6 1.1 1.6 1.1l1.5 1.4 0.8 2.5 0.9 0.2c0.6 0.1 1.2 0.2 1.7 0.4 0 0 0.3 0.1 0.6 0.3 0.3 0.1 0.6 0.3 0.8 0.5 0.4 0.2 1.1 0.8 1.1 0.8l0.9 0.8 1.1 1 0.7 1.2c0 0 0.3 0 0.4 0.1 0.2 0.1 0.7 0.5 0.7 0.6l0.1 0.1q0.1 0.1 0.2 0.3c0.1 0.2 0.2 0.4 0.2 0.4l0.7 1.2v0.2c0.8 1.4 1.4 2.1 1.8 2.6l0.4 0.3 0.3 0.4 1.2-0.3q0.5-0.1 1.1-0.4c1-0.6 2.2-0.4 5.2-1.8q0.3-0.2 0.5-0.4c0.5-0.7 0.6-2.5 0.6-2.7 0-0.2 0.4-1 1-1.6q0.2-0.5 0.4-1c0.2 0 0.6 0 1.1 0.1q0.4 0 0.8 0.2l0.1 0.1q0.8 0.2 1.8 0.7c0 0 2.4 0.8 3 1.2 0.4 0.4 3.6 2.6 3.6 2.6l0.6 1.5 1 2.2q0.5 0.1 0.9 0.2 0.5 0.1 1.1 0.3l3.7 1.1c0 0 0.2 2.3 0.3 3.4 0.1 1.1 0.1 1.7 0.6 2.8 0.4 0.9 1 1.9 1 1.9 0 0 0.3 2.5 0.5 3.9q0.2 0.6 0.5 1.5c0.3 0.6 0.7 1.8 1 2.5 0.5 0.7 1.4 1.2 5.6 1.1 0.3 0 2.5-1.1 3.5-0.9q0.5-0.2 0.9-0.2c0.3 0 1.1 1.6 1.1 1.6l1.5 2.3 1.1 1.8q0.1 2.4-0.2 4.7l0.3 1.3c0 0 0.1 0.1 0.2 0.3 1 2 0.3 2.3 0.3 2.4 0.2 0.1 0.4 0.3 0.6 0.4q1.8 0.2 3 0.5c1.2 0.1 2.5 0.2 2.5 0.2l2.4 2.9c0 0 0.1 1.6 0.1 2.2q0 0.7 0 1.2c0.2 0.4 0.2 0.4 0.2 0.5q0.1 0.7 0.2 1.1c0.4 0.5 0.9 1.3 0.9 1.3 0.1 0 0.4 0.1 1.2 1.1 0.5 0.8 2.4 1.7 2.4 1.7q1 0.3 2 0.8c0.5 0 0.8 0 0.8 0.2q0.1 0 0.1 0.1 0.7 0.3 1.3 0.5l2.7 0.8q1.4 0.9 2.7 1.9l0.2 2c0 0-0.1 1.2-0.1 1.4 0.2 0.5 0.4 1 0.7 1.5 0.2 0.2 0.4 0.4 0.5 0.7 0.4 0.4 0.7 0.7 0.7 0.8h-0.1l0.1 0.2c0 0 0 0.1-0.1 0.2-0.1 0.1-0.3 0.2-0.3 0.2-0.1 0.1-0.1 0.1-0.2 0.1-0.1 0.1-0.1 0.1-0.2 0.2 0 0.1-0.1 0.3-0.1 0.3-0.1 0 0 0.1-0.2 0.1-0.2 0.1-0.5 0.2-0.6 0.3-0.1 0-0.2 0-0.3 0.1 0 0-0.8 0.2-0.8 0.2 0 0-0.2 0-0.3 0.1-0.1 0-0.2 0.2-0.3 0.2-0.1 0.1-0.1 0.2-0.3 0.2-0.1-0.1-0.3 0-0.4-0.1-0.1-0.1-0.1-0.1-0.3-0.1-0.2-0.1-0.4-0.2-0.6-0.2-0.2 0-0.5 0.1-0.5 0-0.1-0.1 0 0-0.2-0.2-0.1-0.2-0.3-0.4-0.3-0.4l-1.2-0.6-3.1 1-2.4 2.1-2.1 1.4-2.6-0.7c0 0-0.2-1.1-1.7-0.7-1.6 0.3-1.4-0.9-2.3 1-0.8 1.9-0.8 2.9-0.8 2.9l-0.7 1.9-1.9 0.4-1.4-0.4-1.4-0.6c0 0 0 1.3-1.7 0-1.7-1.4-2.1-2.3-2.1-2.3l-4.1-1.4-2.8-0.1-1.3 2.2-1.4 1.4h-1.6l-1.5 1-1.2 1.4 0.5 1.7-2.8 0.7-2.1 0.4-2.2 1.2-0.3 1.5-1.3 1.1-2.2 0.1-1.4 2.5-1.9 1.3-0.1 1.6-0.2 2.2-4.7 1.1 0.5 2.1c0 0 3.3 1.5 0.7 1.5h-3.4c0 0-0.5 1.7-2.3 1.2-1.7-0.5-2.2-0.7-2.2-0.7 0 0 0.7-0.8-1-2.7-1.8-1.9-3.5-3.1-3.5-3.1 0 0-1 0.5-1-2 0.1 0 0.4-0.1 0.4-0.1l0.2-0.6v-0.5l-0.6-1.1v-0.4c-0.2-0.1-0.3-0.1-0.4-0.3-0.1-0.3 0.2-0.3-0.2-0.5-0.4-0.2-0.6-0.1-0.6-0.2l-2.1-0.6-2.1-1.7-2.4-1.7-2.6 0.5c0 0-0.3 3.1-1.9 1.9-1.5-1.2-1.5-1.6-1.5-1.6l-1.4-2.7-3.8-0.5c0 0-0.5 1.7-2.3 0.1-1.5-1.4-2.3-2.5-2.4-2.7 0.1 0 0 0 0 0zm-43.8-51.2l0.1-0.1zm88.3 41.2q0.1 0.1 0.2 0.1c0.3 0.2 0.3 0.2 0.6 0.4 0.4 0.2 0.6 0.9 0.9 1.3 0.2 0.3 2.1-0.2 2.4-0.4 0.1 0 0.3-0.1 0.3-0.1 0.2-0.1 0.7-0.2 1-0.3 1-0.5 1-0.5 1.1-0.6 0.2-0.2 0.8 0.1 1.1-1.3 0.2-1.3 0.1-2.2 0.4-3.2 0.3-0.9 0.8-1.2 0.7-1.7 0-0.2-0.6-0.5-0.7-0.5-0.1-0.1-1.8-1.4-1.9-1.4-0.3-0.6-2 0.7-2.3 0.8-0.3 0-0.7 0.3-1.1 0.2-0.3-0.1-0.3 0-0.5-0.1-0.1 0-0.4-0.2-0.4-0.2-0.2-0.1-1.7-0.1-1.8-0.1-0.1 0-0.8 0.4-0.8 0.4-0.3 0.3-1.2 0.3-1.5 0.6-0.4 0.5-0.1 0.6-0.3 1.3-0.1 0.5-0.3 0.3-0.8 0.6-0.2 0.1 0 0.1 0.1 0.5-0.5 0-0.5-0.1-1 0.2 0 0-0.3 0.1-0.5 0.3-0.1 0.1 0 0.4 0 0.4 0.1 0.1 0.1 0.9 0.2 1.2 0.3 0.6 0.4 0.5 0.7 0.6 0.6 0.3 1.1 0.1 1.4 0.5 0.1 0.1 0.4 0.3 0.5 0.3 0.5 0.4 0.9 0.3 2 0.2zm-62.5-24.9l0.2 0.1c0.1 0.1 0.4 0 0.4 0 0.1 0 0.4-0.1 0.5-0.1 0-0.1-0.1-0.9-0.1-1-0.3-0.3-0.3-0.3-0.3-0.3-0.2-0.2-0.2-0.6-0.1-0.7 0.4-0.3 0.1-0.8 0-0.8 0 0-0.3 0-0.4 0.1-0.3 0.3-1 0.2-1.1 0.4 0 0.1-0.7 0.8-0.7 0.9 0 1.1 1 0.8 1.6 1.4zm-8.4-1.1c-0.1 0.6-0.7 1.5 0.3 2.2 0.6 0.5 0.3 0.6 0.5 1.5 0 0.1 0.2 0.7 0.4 1 0.3 0.4 0.4 0.4 1.7 0.2 0.4 0 0.4-0.7 0.4-0.8 0.1-0.7 0.3-0.6 0.9-1 0.6-0.6 0.6-0.7 0.5-1.5 0-0.3-0.4-0.8-0.4-0.9-0.3-0.4-0.7 0.3-0.7-0.7 0.1-0.2 0.2-0.1 0.5-0.4 0-0.1 0.1-0.2 0.1-0.3 0.6-1 0.5-1.1 0.6-2.2 0-0.3 1-1.5 0.1-2.5-0.7-0.6-1.4 0-1.8 0.1-0.8 0.2-0.9 0.9-1.4 1.9-0.3 0.6-2.5 1.2-2.4 2.4 0 0.9 0.8 0.8 0.7 1z"/><path fill-rule="evenodd" class="e" d="m237.2 157h0.1v1.4l1.4 1.8 1.3 1.5q0.1 0 0.3-0.1c0.3-0.3 0.4-0.3 0.7-0.6 0 0 0.2-0.3 0.3-0.4q-0.1-0.1-0.2-0.3c-0.1-0.2 0.1-1.1 0.2-1.2 0-0.1 0.2-0.5 0.3-0.6 0.2-0.3 0.2-0.3 0.2-0.3 0.1-0.1 0.4-0.3 0.6-0.6 0.1-0.3 0.1-0.3 0.1-0.6 0-0.6-0.1-0.8 0.1-0.7 0.4 0.1 1.6 0 1.6 0 0.1 0.4 0.1 0.8 0.2 1 0 0 0.1 0.5 0.2 0.7 0.2 0.3 0.2 0.9 0.9 1.1 0.1 0 0.4 0.2 0.6 0.5 0.1 0.4 0.3 0.5 0 1.2-0.3 0.7-0.7 0.8-0.8 0.8-0.2 0.1-0.2 0.2-0.6 0.1-0.8-0.1-1 0-1.4-0.1-0.6 0.4-0.8 0.3-1.4 0.2 0-0.1-0.1-0.1-0.1-0.1 0-0.1-0.1-0.1-0.3 0.2-0.1 0.2-0.1 0.2-0.3 0.4-0.5 0.5-0.6 0.8-0.7 1.6-0.1 0.3-0.1 0.7-0.1 1l0.9 1.2 1.7 3.8 2.5 3.9v2.7l-1.5 2-2.6-2.4-1.4 1-0.2 2.3-0.9 2-3.4 1.9-2.4-1.6-0.5-3.8 3.8-2.3 0.8-2.7-0.6-2.4-0.2-3.5-0.7-2.5-0.4-2.8-0.9-1.8-0.5-0.7 0.2-0.1q0 0 0 0c0.1 0 0.4-0.1 0.6-0.3q0-0.1 0-0.1l0.3-0.2c0.2 0 0.3 0 0.5-0.1 0.3-0.1 0.4-0.3 0.5-0.6l0.7-0.5c0.3 0 0.3-0.1 0.3-0.1q0.1-0.1 0.2-0.2zm-188.2-18.4c0 0-0.2 0-0.3-0.2 0-0.1-0.1-0.4 0-0.4 0-0.1 0.2-0.2 0.2-0.4 0-0.5 0.1-0.4 0.5-0.7 0.4-0.4 0.1-1.2 0.3-1.6 0-0.1 0.2-0.3 0.2-0.3 0.1 0 0.3-0.1 0.4 0.1 0.1 0.1 0.2 0.2 0.2 0.1 0.5 0.8 0.5 0.9 0.7 1 0.3 0.4 0.3 0.4 0.5 0.5 0.2 0 0.4 0 0.7 0 2.2-0.1 1.4 0.1 2.1 0 0.2 0 1.6-1.3 1.6-1.3 0 0 0.4-0.3 0.6-0.4 0.1-0.1 0.6-0.2 0.6-0.2 0 0 0.3-1.8 0.3-5.7 0.1 0 0.2 0.2 0.3 0.3 0.2 0 0.4-0.1 0.6 0.3 0.2 0.2-0.3 0.8 0.4 1.2 0.3 0.1 0.3 0.1 0.5 0.2 0.7 0.3 0.8 1.1 1.1 1.4 0.2 0.1 0.8-0.4 0.8-0.1 0.1 0.2-0.4 1.4-0.4 1.4 0.1 0.1 1.5 1.8 1.7 1.8 0.3 0.1 1.6 0.5 1.6 0.5 0 0 0.5 0.2 0.7 0 0.4-0.2 1.3-0.9 1.4-0.9 0-0.1 1.8-0.7 2.6-0.7 0.4 0 0.5 0 1.1 0.3 0.8 0.3 0.8 0.3 0.9 0.3 0.6 0.1 0.5 0.2 1.2 0.4 2 0.7 2 0.6 2.1 0.7 0.6 0.3 2.1 0.1 2.7 0.2 0.3 0.1 2.7-0.2 2.9 0.5 0.6 1.4 1.2 1.8 1.4 2 0.6-0.2 1.1-0.3 1.8 0.2 0 0 2.1-1.4 3-1 0.5 0.1 1.4 0.7 1.4 0.7q0.5-0.1 1.1 0.1c0 0 1.3 0.7 1.5 1.1 0.7 1.7-0.6 2.6-1.3 3.3-0.3 0.2-2.4 1.5-2.4 1.5 0.1 0-3 0.1-4.1 0.6-2.9 1.4-2.3 5-2.9 5.6-1.7 1.7-1.9 1.5-4.3 1.7-1.4 0-4.4 2.5-4.4 2.5l-3.7 1.2c-2.3-0.4-3.5-2-3.7-4.5l1.3-0.6c0 0 0.4-0.2 0.7-0.3 0.4-0.1 0.7-0.2 0.8-0.3 0.4-1.5 0.1-3.1 0.3-3.1 1.6-0.9 3.7-1.5 6.4-1.7l3.4-0.1 2.3-1.9-0.4-0.3c0 0-1.2-0.9-1.9-1-4-0.3-6.6-0.3-8-0.3-0.1 0-0.2 0-0.3-0.1-0.2-0.1-1.1-0.5-1.1-0.5 0 0-1.3 0.5-1.9 1.2-2.4 2.6-3.3 3.7-3.3 3.7l-2.4 1.2c0 0-1.2 0.2-2.2 0.2l-2.1 0.2c0 0-0.4-0.6-0.5-0.9-0.1-0.4-0.1-1.2-0.1-1.2-0.2-0.2 3.7-3.9 5.3-4.8 0.1-0.1 2-1.4 2-1.4 0.1-0.5-0.1-0.6-0.1-0.6 0 0-1.2 0.1-2.9 0.2-1.9 0.2-5.7 1-6 0.9-0.4 0-1.7-0.4-1.7-0.4 0 0-0.6-0.3-0.8-0.3-0.6-0.8-1-1.1-1-1.1zm47.2 10.4c0 0 0 0 0 0.1-0.1 0.1-0.3 0.3-0.4 0.3 0 0.4 0 0.8 0 1.3 0 0 0.5 0.5 0.6 0.8 0.2 0.7 0.9 0.4 1.5 0.7 1.1 0.5 1.6 0.3 1.6 0.3 0 0 2.1-1.6 3.9-1.3 1.2 0.2 1.9 0.8 1.9 0.8l0.6 1.5c0 0 3.5 0.1 3.8 0.6 0.2 0.4 1 1.2 0.6 1.5-0.3 0.3-1.1 1-1.1 1 0 0-2 1-2.5 1.8 0 0.1 0 0.5 0.3 1 0.1 0.3 1.7 2.1 1.7 2.1 0 0 1.3-1.5 2-1 0.7 0.4 1.5 3.5 1.5 3.5l-1.6 2.9-0.6 3.9c0 0-4.3 2.7-4.7 1.4-0.6-1.8-0.8-4.7-0.6-4.8l1.3-3.3-2.8-0.7c0 0-0.3 0.9-1.3 2.7-0.2 0.4-0.3 1.3-0.6 1.9-0.4 0.9-1.8 3.6-1.8 3.6 0 0.1-1.4 1-1.7 1.1-0.4 0.1-1.1-2.6-1.1-2.6-0.4-1.8 0.7-5.8 0.7-5.8-0.1 0 1-1 1-1l1.2-1.8v-4.4c0 0-1.8-0.9-3.3-1.3-0.8-0.2-0.8-1.7-1.1-1.7-0.2 0-1.3 0.2-1.4 0.3-1 1.1-2.1 2.4-2.5 5.3-0.3 2-1.9 3.9-3.3 4.3-0.4 0.1-0.9 0.7-0.9 0.7l-2.9 1.4c0 0-4.7 2.9-6.9 3.5-2.6 0.8-4.1 4.4-4.1 4.4 0 0-0.8 0-1.2-0.3-0.6-0.4-2.5-2.1-2.6-2.4-0.1-0.3-0.3-1.7-0.3-1.7l-3 1-2.2 0.8c-0.3-1.3-0.3-2.6-0.3-3.9l1.8-1.4c0 0 2.6 0.7 3.1 1 0.1 0.1 1.4 0.6 1.7 0 0.8-1.5 0.8-1.6 1.7-3.1 0.9-1.4 1.4-1.6 1.6-1.9 0.7-0.6 2.8-1.9 2.8-1.9 0 0 1.9-0.5 3.2-1.1 1.3-0.7 0.8-1.9 1.2-2.3 0.2-0.2 0.9-0.8 2.9-1.5 1.1-0.4 1.1-0.4 2.2-0.5 0.5 0 0.3-0.3 1.4-1.1 0.5-0.5 2.5-1.9 2.6-2 1-0.5 0.9-0.7 1.3-0.8 1.7-0.2 1.6-0.3 3-1 0.2-0.1 0.5-0.5 0.5-0.5q0 0 0.4-0.4c0.5-0.4 1-0.9 1-0.9 0 0 0.1-0.1 0.2-0.1 0 0-0.1 0.1-0.1 0.1 0 0.1 0 0.1 0 0.1 0 0 0 0.1 0 0.1q0.1 0 0.1 0.2c0 0-0.3 0.5 0 0.5zm-56.3-11.6l-0.1 0.1c-0.6 1.4-0.5 1.5-0.6 1.6 0 0.1 0 0.2-0.1 0.2q-0.1 0.1-0.1 0.1-0.1 0.3-0.2 0.6-0.1 0.6-0.3 1c-0.2 0.8-0.7 2.6-1.2 3.5-0.5 1.1-0.4 1.5-1.1 1.6-0.2 0-0.1 0.1-1.7 0.9-0.8 0.4-0.7 0.6-0.8 1.5-0.2 0.8-0.3 2.8-0.3 2.8l-1.3 2.1-4-1.1-1.5-2.2c0 0 0.3-3.6 0.2-4.2-0.5-0.2-4.7-0.5-6.8 0.2-0.4 0.1-2.6 0.8-4.7-0.2-0.1-0.1-0.2-1.6 0.2-1.8 0.8-0.4 1.4-0.9 3.9-1.3 0.3-0.1 1.4-0.4 1.4-0.4 0 0 0.3-0.3 0.3-0.6 0-0.2-0.3-0.6-0.3-0.6 0-0.1-2-1.5-2-1.4v-0.1c-0.1 0-0.1-0.3-0.1-0.4 0.1-0.1 0.2-0.1 0.5-0.4 1.1 0.2 1.2 0.2 1.2 0 0.1-0.1 0.1-0.9 0.2-1 0-0.1 0 0.2 0 0.3q0.1 0 0.1 0.1l2.8 0.2c0 0 0.3-0.4 0.3-0.5 0.9-0.9 1.1-0.8 1.2-2 0-0.1-0.4-0.8 1-1.5l1.3-0.8c0.2-0.1 0.5-0.2 0.6-0.3 0.1 0 0.3-1.9 0.3-1.9 0.6 0.2 1.4 0.4 2.5-0.6 0.5-0.5 0.3-0.9 0.4-1.2q0.1-0.1 0.1-0.1 0.3-0.2 0.7-0.3c1.8-0.1 3.4 1.1 3.8-0.6 0.3-0.1 0.7-0.1 1 0 0.1 0 0.7 0.4 0.9 0.4 0.2 0 1 0.3 1.2 0.4v-0.1c0-0.5 0.9-0.7 1.3-0.7q0.1 0.5 0.4 1.1l0.3 0.7c0.4 1.1 0.8 1.2-0.3 2.3-0.1 0.2 0 0.2-0.9 2.2-0.4 0.8 0 1.8 0.3 2.4zm-9.9 6.9l1-0.3c0 0 0.1-0.5 0.2-0.7 0.1-0.2 0.1-0.6 0.1-0.6 0 0-0.1-0.4-0.2-0.5 0 0-0.2-0.5-0.2-0.5l-0.1-0.4h-0.5c0 0-0.1 0-0.2 0-1.6 0.3-1.9 0.3-1.9 0.3 0 0 0 0.7-0.1 0.7 0 0.7 0 0.8 0.5 1l0.7 0.5z"/><path fill-rule="evenodd" class="f" d="m242.4 156.2c0.1 0.1 0.1 0.1 0.2 0.1 0.1 0 0.1 0.3 0.4 0.2 0.3-0.1 0.4-0.1 0.5-0.1 0 0.1 0.1 0.1 0.1 0.1 0.2 0.1 0.5-0.2 0.5-0.3 0-0.1 0-0.1 0-0.1-0.2-0.2-0.4-0.2-0.5-0.2-0.1-0.1-1.2 0.2-1.2 0.3z"/></svg>